<mxfile host="www.draw.io" modified="2019-11-27T14:49:35.731Z" agent="Mozilla/5.0 (X11; Ubuntu; Linux x86_64; rv:70.0) Gecko/20100101 Firefox/70.0" etag="Ywih0yAjCBydWEGQ0Men" version="12.3.2" type="github" pages="1">
  <diagram id="7eLwQVrv5TBEV_nr44kK" name="Page-1">
    <mxGraphModel dx="1408" dy="780" grid="1" gridSize="10" guides="1" tooltips="1" connect="1" arrows="1" fold="1" page="1" pageScale="1" pageWidth="1169" pageHeight="827" math="0" shadow="0">
      <root>
        <mxCell id="0"/>
        <mxCell id="1" parent="0"/>
        <mxCell id="aQk3EPfbD4i0WiCAkpn0-1" value="" style="endArrow=classic;html=1;" edge="1" parent="1">
          <mxGeometry width="50" height="50" relative="1" as="geometry">
            <mxPoint x="560" y="640" as="sourcePoint"/>
            <mxPoint x="560" y="40" as="targetPoint"/>
          </mxGeometry>
        </mxCell>
        <mxCell id="aQk3EPfbD4i0WiCAkpn0-2" value="" style="endArrow=classic;html=1;" edge="1" parent="1">
          <mxGeometry width="50" height="50" relative="1" as="geometry">
            <mxPoint x="240" y="320" as="sourcePoint"/>
            <mxPoint x="880" y="320" as="targetPoint"/>
          </mxGeometry>
        </mxCell>
        <mxCell id="aQk3EPfbD4i0WiCAkpn0-3" value="Text" style="text;html=1;strokeColor=none;fillColor=none;align=right;verticalAlign=middle;whiteSpace=wrap;rounded=0;" vertex="1" parent="1">
          <mxGeometry x="160" y="307" width="70" height="20" as="geometry"/>
        </mxCell>
        <mxCell id="aQk3EPfbD4i0WiCAkpn0-4" value="Text" style="text;html=1;strokeColor=none;fillColor=none;align=left;verticalAlign=middle;whiteSpace=wrap;rounded=0;" vertex="1" parent="1">
          <mxGeometry x="884" y="308" width="70" height="20" as="geometry"/>
        </mxCell>
        <mxCell id="aQk3EPfbD4i0WiCAkpn0-6" value="Text" style="text;html=1;strokeColor=none;fillColor=none;align=center;verticalAlign=middle;whiteSpace=wrap;rounded=0;" vertex="1" parent="1">
          <mxGeometry x="520" y="10" width="80" height="20" as="geometry"/>
        </mxCell>
        <mxCell id="aQk3EPfbD4i0WiCAkpn0-8" value="Text" style="text;html=1;strokeColor=none;fillColor=none;align=center;verticalAlign=middle;whiteSpace=wrap;rounded=0;" vertex="1" parent="1">
          <mxGeometry x="520" y="650" width="80" height="20" as="geometry"/>
        </mxCell>
      </root>
    </mxGraphModel>
  </diagram>
</mxfile>
